<?xml version="1.0" encoding="UTF-8"?>
<svg width="50" height="50" viewBox="0 0 69 74" version="1.1" xmlns="http://www.w3.org/2000/svg" xmlns:xlink="http://www.w3.org/1999/xlink">
    <!-- Generator: Sketch 3.6.1 (26313) - http://www.bohemiancoding.com/sketch -->
    <title>angular</title>
    <desc>Created with Sketch.</desc>
    <defs></defs>
    <g id="Welcome" stroke="none" stroke-width="1" fill="none" fill-rule="evenodd">
        <g id="MyVersion-Desktop-HD" transform="translate(-688.000000, -592.000000)">
            <g id="Group-18" transform="translate(335.000000, 589.000000)">
                <g id="angular" transform="translate(353.636078, 3.551348)">
                    <g id="Layer_1">
                        <g id="Group">
                            <path d="M33.9542748,0 L33.9542748,0 L33.9542748,0 L0.0915581434,12.0718923 L5.25644081,56.8324326 L33.9542748,72.7222426 L33.9542748,72.7222426 L33.9542748,72.7222426 L62.6521087,56.8324326 L67.8169914,12.0718923 L33.9542748,0 Z" id="Shape" fill="#DD0031"></path>
                            <path d="M33.9542748,0 L33.9542748,8.07216893 L33.9542748,8.03580781 L33.9542748,44.8696237 L33.9542748,44.8696237 L33.9542748,72.7222426 L33.9542748,72.7222426 L62.6521087,56.8324326 L67.8169914,12.0718923 L33.9542748,0 L33.9542748,0 Z" id="Shape" fill="#C3002F"></path>
                            <path d="M33.9542748,8.03580781 L12.7855303,55.4870711 L12.7855303,55.4870711 L20.678344,55.4870711 L20.678344,55.4870711 L24.9339163,44.8696237 L42.9018884,44.8696237 L47.1574607,55.4870711 L47.1574607,55.4870711 L55.0502744,55.4870711 L55.0502744,55.4870711 L33.9542748,8.03580781 L33.9542748,8.03580781 L33.9542748,8.03580781 L33.9542748,8.03580781 L33.9542748,8.03580781 L33.9542748,8.03580781 Z M40.137585,38.3246218 L27.7709645,38.3246218 L33.9542748,23.4529232 L40.137585,38.3246218 L40.137585,38.3246218 Z" id="Shape" fill="#FFFFFF"></path>
                        </g>
                    </g>
                </g>
            </g>
        </g>
    </g>
</svg>