<?xml version="1.0" encoding="UTF-8"?>
<svg width="489px" height="327px" viewBox="0 0 489 327" version="1.1" xmlns="http://www.w3.org/2000/svg" xmlns:xlink="http://www.w3.org/1999/xlink">
    <!-- Generator: Sketch 3.6.1 (26313) - http://www.bohemiancoding.com/sketch -->
    <title>Group 20</title>
    <desc>Created with Sketch.</desc>
    <defs></defs>
    <g id="Welcome" stroke="none" stroke-width="1" fill="none" fill-rule="evenodd">
        <g id="Artboard-40" transform="translate(-2054.000000, -348.000000)">
            <g id="Group-20" transform="translate(2054.000000, 348.000000)">
                <rect id="Rectangle-176" fill="#000000" x="0" y="0" width="489" height="327"></rect>
                <g id="Group-3" transform="translate(95.000000, 244.000000)">
                    <rect id="Rectangle-177" fill="#177E89" x="0" y="0" width="123" height="30" rx="3"></rect>
                    <text id="New-Game" font-family="HelveticaNeue, Helvetica Neue" font-size="14" font-weight="normal" letter-spacing="0.0905900598" fill="#FFFFFF">
                        <tspan x="26.2706398" y="20">New Game</tspan>
                    </text>
                </g>
                <g id="Group-3" transform="translate(245.000000, 244.000000)">
                    <rect id="Rectangle-177" fill="#084C61" x="0" y="0" width="123" height="30" rx="3"></rect>
                    <text id="Find-Game" font-family="HelveticaNeue, Helvetica Neue" font-size="14" font-weight="normal" letter-spacing="0.0905900598" fill="#FFFFFF">
                        <tspan x="26.7293447" y="20">Find Game</tspan>
                    </text>
                </g>
                <g id="Group-16" transform="translate(96.000000, 84.000000)">
                    <g id="Group" transform="translate(254.993122, 36.712500)">
                        <rect id="Rectangle-72" fill="#177E89" x="0" y="0" width="43.5955983" height="55.6875" rx="13"></rect>
                        <g id="Group-13" transform="translate(4.524072, 8.662500)">
                            <ellipse id="Oval-8" fill="#084C61" cx="17.235698" cy="17.2647764" rx="17.235698" ry="17.2647764"></ellipse>
                            <g id="Group-12" transform="translate(15.542906, 5.395243)" stroke="#9BF6FF" fill="#177E89">
                                <rect id="Rectangle-33" x="0.15389016" y="0" width="1.5389016" height="12.9485823" rx="2"></rect>
                                <rect id="Rectangle-33" transform="translate(5.294508, 15.155831) rotate(117.000000) translate(-5.294508, -15.155831) " x="4.52505708" y="9.7693634" width="1.5389016" height="10.7729352" rx="2"></rect>
                                <path d="M0.923340963,13.873481 C1.4332881,13.873481 1.84668193,13.4593897 1.84668193,12.9485823 C1.84668193,12.4377748 1.4332881,12.0236835 0.923340963,12.0236835 C0.41339383,12.0236835 0,12.4377748 0,12.9485823 C0,13.4593897 0.41339383,13.873481 0.923340963,13.873481 Z" id="Oval-8"></path>
                            </g>
                        </g>
                    </g>
                    <path d="M90.1787966,84.1258887 C98.2959503,81.8610304 111.714113,80.025 120.133923,80.025 L288.266352,80.025 C296.692958,80.025 297.057793,82.2572089 289.095592,85.0058216 L229.527516,105.569178 C221.558887,108.32001 208.27014,110.55 199.829935,110.55 L10.7450307,110.55 C2.31213841,110.55 2.05268337,108.714946 10.1733354,106.449111 L90.1787966,84.1258887 Z" id="Rectangle-104" fill="#014357"></path>
                    <path d="M89.9753708,84.1258887 C98.0925245,81.8610304 111.510687,80.025 119.930498,80.025 L288.062926,80.025 C296.489532,80.025 296.854367,82.2572089 288.892167,85.0058216 L229.32409,105.569178 C221.355461,108.32001 208.066714,110.55 199.626509,110.55 L10.5416049,110.55 C2.10871259,110.55 1.84925755,108.714946 9.9699096,106.449111 L89.9753708,84.1258887 Z" id="Rectangle-104" fill="#014357"></path>
                    <g id="Group" transform="translate(0.411279, 76.312500)">
                        <rect id="Rectangle-72" fill="#177E89" x="0" y="0" width="43.5955983" height="55.6875" rx="13"></rect>
                        <g id="Group-13" transform="translate(4.524072, 8.662500)">
                            <ellipse id="Oval-8" fill="#084C61" cx="17.235698" cy="17.2647764" rx="17.235698" ry="17.2647764"></ellipse>
                            <g id="Group-12" transform="translate(15.542906, 5.395243)" stroke="#9BF6FF" fill="#177E89">
                                <rect id="Rectangle-33" x="0.15389016" y="0" width="1.5389016" height="12.9485823" rx="2"></rect>
                                <rect id="Rectangle-33" transform="translate(5.294508, 15.155831) rotate(117.000000) translate(-5.294508, -15.155831) " x="4.52505708" y="9.7693634" width="1.5389016" height="10.7729352" rx="2"></rect>
                                <path d="M0.923340963,13.873481 C1.4332881,13.873481 1.84668193,13.4593897 1.84668193,12.9485823 C1.84668193,12.4377748 1.4332881,12.0236835 0.923340963,12.0236835 C0.41339383,12.0236835 0,12.4377748 0,12.9485823 C0,13.4593897 0.41339383,13.873481 0.923340963,13.873481 Z" id="Oval-8"></path>
                            </g>
                        </g>
                    </g>
                    <g id="Group-10" transform="translate(56.756534, 0.000000)">
                        <g id="Group-7" fill="#177E89">
                            <path d="M35.8330274,100.618964 C34.8579303,100.705988 33.8705791,100.750437 32.8728463,100.750437 C14.7176746,100.750437 0,86.0331568 0,67.8784721 C0,51.8391903 11.487661,38.4829235 26.6843272,35.588119 C33.0023159,14.9824647 52.1792669,0 74.8556539,0 C95.119386,0 112.588714,11.9639452 120.584959,29.2133354 C124.916284,27.4436859 129.656469,26.468335 134.624465,26.468335 C155.137451,26.468335 171.766512,43.0969499 171.766512,63.6093858 C171.766512,64.0824061 171.75767,64.553361 171.74014,65.0220944 C179.827305,66.7578492 185.889869,73.9474084 185.889869,82.5529173 C185.889869,90.1802756 181.127187,96.69528 174.413435,99.2863956 C172.599743,100.222119 170.54171,100.750437 168.360015,100.750437 L37.7047437,100.750437 C37.0693784,100.750437 36.4444773,100.705617 35.8330274,100.618964 Z" id="Combined-Shape"></path>
                            <path d="M35.8330274,100.618964 C34.8579303,100.705988 33.8705791,100.750437 32.8728463,100.750437 C14.7176746,100.750437 0,86.0331568 0,67.8784721 C0,51.8391903 11.487661,38.4829235 26.6843272,35.588119 C33.0023159,14.9824647 52.1792669,0 74.8556539,0 C95.119386,0 112.588714,11.9639452 120.584959,29.2133354 C124.916284,27.4436859 129.656469,26.468335 134.624465,26.468335 C155.137451,26.468335 171.766512,43.0969499 171.766512,63.6093858 C171.766512,64.0824061 171.75767,64.553361 171.74014,65.0220944 C179.827305,66.7578492 185.889869,73.9474084 185.889869,82.5529173 C185.889869,90.1802756 181.127187,96.69528 174.413435,99.2863956 C172.599743,100.222119 170.54171,100.750437 168.360015,100.750437 L37.7047437,100.750437 C37.0693784,100.750437 36.4444773,100.705617 35.8330274,100.618964 Z" id="Combined-Shape"></path>
                        </g>
                        <g id="Group-13" transform="translate(44.829436, 23.512500)">
                            <g id="Group-8">
                                <g id="Group-9">
                                    <ellipse id="Oval-8" fill="#084C61" cx="34.4713959" cy="34.5295527" rx="34.4713959" ry="34.5295527"></ellipse>
                                    <g id="Group-12" transform="translate(31.085812, 10.790485)" stroke="#9BF6FF" fill="#177E89">
                                        <rect id="Rectangle-33" x="0.307780321" y="0" width="3.07780321" height="25.8971645" rx="2"></rect>
                                        <rect id="Rectangle-33" transform="translate(10.589016, 30.311662) rotate(117.000000) translate(-10.589016, -30.311662) " x="9.05011416" y="19.5387268" width="3.07780321" height="21.5458704" rx="2"></rect>
                                        <path d="M1.84668193,27.746962 C2.86657619,27.746962 3.69336385,26.9187795 3.69336385,25.8971645 C3.69336385,24.8755496 2.86657619,24.0473671 1.84668193,24.0473671 C0.82678766,24.0473671 0,24.8755496 0,25.8971645 C0,26.9187795 0.82678766,27.746962 1.84668193,27.746962 Z" id="Oval-8"></path>
                                    </g>
                                </g>
                            </g>
                        </g>
                    </g>
                </g>
                <text id="Better-than-the-one-" font-family="HelveticaNeue, Helvetica Neue" font-size="14" font-weight="normal" letter-spacing="0.0905900598" fill="#FFFFFF">
                    <tspan x="138.103264" y="64">Better than the one in your phone</tspan>
                </text>
                <text id="Board-Game-Timer" font-family="HelveticaNeue-Bold, Helvetica Neue" font-size="24" font-weight="bold" letter-spacing="0.15529725" fill="#FFFFFF">
                    <tspan x="136.021622" y="43">Board Game Timer</tspan>
                </text>
            </g>
        </g>
    </g>
</svg>