<?xml version="1.0" encoding="UTF-8"?>
<svg width="82px" height="55px" viewBox="0 0 82 55" version="1.1" xmlns="http://www.w3.org/2000/svg" xmlns:xlink="http://www.w3.org/1999/xlink">
    <!-- Generator: Sketch 3.6.1 (26313) - http://www.bohemiancoding.com/sketch -->
    <title>cloud</title>
    <desc>Created with Sketch.</desc>
    <defs></defs>
    <g id="Welcome" stroke="none" stroke-width="1" fill="none" fill-rule="evenodd">
        <g id="top" class="filler" transform="translate(-1079.000000, -365.000000)" fill="#F8196C">
            <g id="Group-6" transform="translate(250.000000, 322.000000)">
                <g id="Group-10">
                    <g id="Group-7" transform="translate(799.594184, 0.000000)">
                        <g id="Group-12">
                            <g id="cloud" transform="translate(30.239737, 43.826401)">
                                <g id="Capa_1">
                                    <path d="M68.4844628,21.9308605 C67.7737699,9.74253491 57.8066044,0 45.7919985,0 C38.4969845,0 31.4330465,3.60639011 27.0560381,9.49064285 C26.9552782,9.43782678 26.8491445,9.4012618 26.7470412,9.3525085 C26.4810351,9.22249969 26.2109987,9.09926218 25.9355884,8.98821299 C25.7824334,8.92727136 25.6292784,8.87174677 25.47478,8.81757643 C25.2020566,8.72142408 24.9253029,8.6361058 24.6431752,8.55891308 C24.4886768,8.51693106 24.3355218,8.4735948 24.1796799,8.43838408 C23.8774003,8.3693169 23.5684034,8.31650082 23.2567195,8.26910178 C23.1210296,8.2487879 22.9880266,8.22170273 22.8509932,8.20680589 C22.4049628,8.15669833 21.9535587,8.12555039 21.4954372,8.12555039 C14.8278212,8.12555039 9.40425376,13.5926915 9.40425376,20.313876 C9.40425376,20.4858668 9.41500148,20.6551491 9.42574919,20.8244314 L9.42574919,20.8298484 C3.838279,23.9013065 0,30.3340339 0,36.7735325 C0,46.3657448 7.74104431,54.1703359 17.2568056,54.1703359 L50.1824415,54.1703359 C50.3221619,54.1703359 50.4605387,54.1622104 50.6002591,54.1513763 L50.6835539,54.1405422 L50.8635782,54.1513763 C51.0006116,54.1622104 51.137645,54.1703359 51.2787088,54.1703359 L64.4486945,54.1703359 C73.3585532,54.1703359 80.6078893,46.8627576 80.6078893,37.8813159 C80.6078893,30.4477916 75.4664495,23.7807775 68.4844628,21.9308605 L68.4844628,21.9308605 Z M64.4486945,51.4618191 L51.2787088,51.4618191 C51.1994444,51.4618191 51.1228669,51.4550478 51.0449459,51.4496308 L50.680867,51.434734 L50.4148609,51.4496308 C50.3382834,51.4550478 50.2603625,51.4618191 50.1824415,51.4618191 L17.2568056,51.4618191 C9.22288601,51.4618191 2.68692964,44.873352 2.68692964,36.7735325 C2.68692964,31.1479432 6.32100199,25.3083809 11.3294388,22.8883212 L12.0911834,22.5213172 L12.0911834,21.6681344 C12.0911834,21.4961436 12.1019311,21.3214442 12.1113354,21.1453906 L12.1234266,20.9287093 L12.107305,20.644315 C12.0992442,20.5346201 12.0911834,20.4249252 12.0911834,20.313876 C12.0911834,15.0877928 16.3110064,10.8340672 21.4954372,10.8340672 C21.9105678,10.8340672 22.3203246,10.8706322 22.7273944,10.9248025 C22.8321847,10.9383451 22.9369749,10.9559504 23.0404217,10.9735558 C23.3991268,11.0331432 23.7524581,11.1116902 24.1004155,11.2132595 C24.1474367,11.2268021 24.1958015,11.2362819 24.2428227,11.2498245 C24.6257102,11.367645 24.9991934,11.5166134 25.3646158,11.6845415 C25.4600019,11.7278777 25.5527009,11.7752768 25.6467435,11.8213216 C25.969175,11.9824783 26.2848893,12.1585319 26.5898558,12.3576079 C29.1787125,14.0477224 30.8996909,16.9796918 30.8996909,20.313876 C30.8996909,21.0627809 31.5002197,21.6681344 32.2431557,21.6681344 C32.9860918,21.6681344 33.5866206,21.0627809 33.5866206,20.313876 C33.5866206,16.5842483 31.9126634,13.2460014 29.2875331,11.0087665 C33.1392468,5.93029752 39.4817442,2.7085168 45.7919985,2.7085168 C56.1971335,2.7085168 64.8382993,11.0168921 65.7397642,21.5164574 C64.3667431,21.4189508 62.3112419,21.3688433 60.2543973,21.6843855 C59.5208655,21.7967889 59.0170662,22.4874607 59.1285738,23.2268858 C59.2293336,23.8972437 59.8016496,24.3780054 60.4545735,24.3780054 C60.5217468,24.3780054 60.5902635,24.3725884 60.6574367,24.3617543 C63.6493329,23.9053692 66.7675147,24.3333149 66.950226,24.3590458 C73.2053982,25.5575645 77.9209597,31.3659788 77.9209597,37.8813159 C77.9209597,45.3690106 71.8767115,51.4618191 64.4486945,51.4618191 L64.4486945,51.4618191 Z" id="Shape"></path>
                                </g>
                            </g>
                        </g>
                    </g>
                </g>
            </g>
        </g>
    </g>
</svg>