<?xml version="1.0" encoding="UTF-8"?>
<svg width="70px" height="70px" viewBox="0 0 101 83" version="1.1" xmlns="http://www.w3.org/2000/svg" xmlns:xlink="http://www.w3.org/1999/xlink">
    <!-- Generator: Sketch 3.6.1 (26313) - http://www.bohemiancoding.com/sketch -->
    <title>Layer_5_59_</title>
    <desc>Created with Sketch.</desc>
    <defs></defs>
    <g id="Welcome" stroke="none" stroke-width="1" fill="none" fill-rule="evenodd">
        <g id="MyVersion-Desktop-HD" transform="translate(-404.000000, -344.000000)" fill="#F8196C">
            <g id="Capa_1" transform="translate(404.000000, 344.000000)">
                <g id="Layer_5_59_">
                    <g id="Group">
                        <path d="M56.9781754,61.0661713 C55.1806792,62.1715688 52.8786892,62.7804893 50.496203,62.7804893 C48.1137168,62.7804893 45.8117268,62.1718226 44.0142306,61.0661713 L14.6680351,43.0188746 C14.6680351,43.0188746 12.0192531,41.3908563 12.0192531,45.0788991 L12.0192531,61.8311927 L12.0192531,63.1003058 C12.0192531,72.5937798 29.2457018,82.8281621 50.4954436,82.8281621 C71.7451855,82.8281621 88.9716341,72.5940336 88.9716341,63.1003058 L88.9716341,61.8311927 L88.9716341,44.0628471 C88.9716341,41.1025138 87.0885789,42.5490489 87.0885789,42.5490489 L56.9781754,61.0661713 L56.9781754,61.0661713 Z" id="Shape"></path>
                        <path d="M99.3012256,28.6634281 C101.556133,27.2767951 101.556133,25.0076208 99.3012256,23.6207339 L54.5959424,1.20438838 C52.3410351,-0.182244648 48.6511178,-0.182244648 46.3962105,1.20438838 L1.69118045,23.6207339 C-0.563726817,25.007367 -0.563726817,27.2765413 1.69118045,28.6634281 L46.3962105,56.1562263 C48.6511178,57.5428593 52.3410351,57.5428593 54.5959424,56.1562263" id="Shape"></path>
                        <path d="M97.4523434,69.4141437 L97.4523434,39.0506116 C97.4523434,39.0506116 97.4733534,37.6124526 96.6223208,38.0873547 C95.9396216,38.4683425 94.2661604,39.4036789 93.676614,39.9179235 C92.9959398,40.511107 93.1493383,41.8426606 93.1493383,41.8426606 L93.1493383,69.4141437 C93.1493383,69.8055382 92.8139373,69.9923517 92.6539574,70.0867737 C91.1085815,70.9977431 90.0694712,72.679318 90.0694712,74.6071009 C90.0694712,77.5042324 92.4114561,79.8528532 95.3009674,79.8528532 C98.1902256,79.8528532 100.532211,77.5042324 100.532211,74.6071009 C100.532211,72.6719572 99.4855063,70.985052 97.9302581,70.076367 C97.775594,69.9860061 97.4523434,69.8052844 97.4523434,69.4141437 L97.4523434,69.4141437 Z" id="Shape"></path>
                    </g>
                </g>
            </g>
        </g>
    </g>
</svg>