<?xml version="1.0" encoding="UTF-8"?>
<svg width="125px" height="99px" viewBox="0 0 213 175" version="1.1" xmlns="http://www.w3.org/2000/svg" xmlns:xlink="http://www.w3.org/1999/xlink">
    <!-- Generator: Sketch 3.6.1 (26313) - http://www.bohemiancoding.com/sketch -->
    <title>Capa_1</title>
    <desc>Created with Sketch.</desc>
    <defs></defs>
    <g id="Welcome" stroke="none" stroke-width="1" fill="none" fill-rule="evenodd">
        <g id="MyVersion-Desktop-HD" transform="translate(-171.000000, -571.000000)" fill="#000000">
            <g id="Group-6" transform="translate(113.000000, 494.000000)">
                <g id="Group-10">
                    <g id="Group-8">
                        <g id="Group-9">
                            <g id="Group-11">
                                <g id="Capa_1" transform="translate(58.571429, 77.607143)">
                                    <path d="M212.107734,34.3654103 L212.107734,3.36454222 C212.107734,1.67859301 210.760592,0.311718997 209.097712,0.311718997 L3.00819196,0.311718997 C1.34805804,0.311718997 0,1.6762942 0,3.36454222 L0,43.3307797 C0,43.5445693 0.0210491071,43.7533015 0.0613169643,43.9542177 L0.0613169643,174.224713 L212.148917,174.224713 L212.148917,34.3654103 L212.107734,34.3654103 L212.107734,34.3654103 Z M204.555681,166.596793 L7.65455357,166.596793 L7.65455357,46.3813041 L204.555681,46.3813041 L204.555681,166.596793 L204.555681,166.596793 Z M86.2569531,126.960665 L46.1968415,106.227673 L46.1968415,101.543153 L86.2569531,80.8124604 L86.2569531,86.7953503 L52.4987612,103.796909 L52.4987612,103.972998 L86.2569531,120.975016 L86.2569531,126.960665 L86.2569531,126.960665 Z M166.280625,106.317787 L126.222801,126.962504 L126.222801,120.977315 L160.241362,103.972998 L160.241362,103.799668 L126.222801,86.7999479 L126.222801,80.8147592 L166.280625,101.457177 L166.280625,106.317787 L166.280625,106.317787 Z M94.5745536,141.341117 L87.9129688,141.341117 L115.636473,68.9404723 L122.396897,68.9404723 L94.5745536,141.341117 L94.5745536,141.341117 Z" id="Shape"></path>
                                </g>
                            </g>
                        </g>
                    </g>
                </g>
            </g>
        </g>
    </g>
</svg>