<?xml version="1.0" encoding="UTF-8"?>
<svg width="50px" height="50" viewBox="0 0 145 119" version="1.1" xmlns="http://www.w3.org/2000/svg" xmlns:xlink="http://www.w3.org/1999/xlink">
    <!-- Generator: Sketch 3.6.1 (26313) - http://www.bohemiancoding.com/sketch -->
    <title>frontendiconpink</title>
    <desc>Created with Sketch.</desc>
    <defs></defs>
    <g id="Page-1" stroke="none" stroke-width="1" fill="none" fill-rule="evenodd">
        <g id="Artboard-1" transform="translate(-68.000000, -49.000000)" fill="#F8196C">
            <g id="frontendiconpink" transform="translate(68.000000, 49.000000)">
                <path d="M144.854063,23.4690607 L144.854063,2.29773615 C144.854063,1.1463562 143.934063,0.212881266 142.798438,0.212881266 L2.054375,0.212881266 C0.920625,0.212881266 0,1.14478628 0,2.29773615 L0,29.591752 C0,29.7377546 0.014375,29.8803034 0.041875,30.0175145 L0.041875,118.982731 L144.882188,118.982731 L144.882188,23.4690607 L144.854063,23.4690607 L144.854063,23.4690607 Z M139.696562,113.77342 L5.2275,113.77342 L5.2275,31.6750369 L139.696562,31.6750369 L139.696562,113.77342 L139.696562,113.77342 Z M58.9071875,86.7048443 L31.5490625,72.5457282 L31.5490625,69.3465435 L58.9071875,55.1889974 L58.9071875,59.2748734 L35.8528125,70.8856939 L35.8528125,71.0059499 L58.9071875,82.6170844 L58.9071875,86.7048443 L58.9071875,86.7048443 Z M113.5575,72.6072691 L86.2009375,86.7061003 L86.2009375,82.6186544 L109.433125,71.0059499 L109.433125,70.8875778 L86.2009375,59.2780132 L86.2009375,55.1905673 L113.5575,69.2878285 L113.5575,72.6072691 L113.5575,72.6072691 Z M64.5875,96.5256412 L60.038125,96.5256412 L78.97125,47.0812982 L83.588125,47.0812982 L64.5875,96.5256412 L64.5875,96.5256412 Z" id="Shape"></path>
            </g>
        </g>
    </g>
</svg>