<?xml version="1.0" encoding="UTF-8"?>
<svg width="55px" height="46px" viewBox="0 0 53 44" version="1.1" xmlns="http://www.w3.org/2000/svg" xmlns:xlink="http://www.w3.org/1999/xlink">
    <!-- Generator: Sketch 3.6.1 (26313) - http://www.bohemiancoding.com/sketch -->
    <title>frontend</title>
    <desc>Created with Sketch.</desc>
    <defs></defs>
    <g id="Page-1" stroke="none" stroke-width="1" fill="none" fill-rule="evenodd">
        <g id="Artboard-1" transform="translate(-35.000000, -24.000000)" fill="#000000">
            <g id="frontend" transform="translate(35.000000, 24.000000)">
                <path d="M52.7779809,8.64044602 L52.7779809,0.845942043 C52.7779809,0.422046242 52.4427763,0.0783750622 52.0290082,0.0783750622 L0.748517249,0.0783750622 C0.335432281,0.0783750622 0,0.421468255 0,0.845942043 L0,10.894596 C0,10.9483488 0.00523757126,11.0008301 0.0152572728,11.0513462 L0.0152572728,43.8050707 L52.7882283,43.8050707 L52.7882283,8.64044602 L52.7779809,8.64044602 L52.7779809,8.64044602 Z M50.8988314,41.8871936 L1.90465418,41.8871936 L1.90465418,11.661585 L50.8988314,11.661585 L50.8988314,41.8871936 L50.8988314,41.8871936 Z M21.4629977,31.9215386 L11.4949887,26.7086722 L11.4949887,25.5308499 L21.4629977,20.3185615 L21.4629977,21.8228309 L13.063072,26.0975085 L13.063072,26.1417824 L21.4629977,30.4165756 L21.4629977,31.9215386 L21.4629977,31.9215386 Z M41.3749912,26.7313293 L31.4075515,31.922001 L31.4075515,30.4171536 L39.8722637,26.1417824 L39.8722637,26.0982021 L31.4075515,21.8239869 L31.4075515,20.3191395 L41.3749912,25.5092332 L41.3749912,26.7313293 L41.3749912,26.7313293 Z M23.5326354,35.5371952 L21.875058,35.5371952 L28.7733947,17.3336045 L30.455566,17.3336045 L23.5326354,35.5371952 L23.5326354,35.5371952 Z" id="Shape"></path>
            </g>
        </g>
    </g>
</svg>