<?xml version="1.0" encoding="UTF-8"?>
<svg width="50px" height="50px" viewBox="0 0 67 67" version="1.1" xmlns="http://www.w3.org/2000/svg" xmlns:xlink="http://www.w3.org/1999/xlink">
    <!-- Generator: Sketch 3.6.1 (26313) - http://www.bohemiancoding.com/sketch -->
    <title>Group 16</title>
    <desc>Created with Sketch.</desc>
    <defs></defs>
    <g id="Welcome" stroke="none" stroke-width="1" fill="none" fill-rule="evenodd">
        <g id="MyVersion-Desktop-HD" transform="translate(-800.000000, -596.000000)">
            <g id="Group-18" transform="translate(335.000000, 589.000000)">
                <g id="Group-16" transform="translate(465.031443, 7.102696)">
                    <g id="Group-17">
                        <rect id="Rectangle-60" fill="#6D4C13" x="0" y="2.13162821e-14" width="66.5636517" height="66.4376032"></rect>
                        <g id="illustrator" transform="translate(11.819714, 10.555507)" fill="#FFBD2E">
                            <g id="Capa_1">
                                <g id="Group">
                                    <g id="Shape">
                                        <path d="M32.0987341,45.2956906 L26.9260688,45.2956906 L22.5197243,30.8906458 L9.23683071,30.8906458 L5.0220664,45.2956906 L0.0409812977,45.2956906 L13.1961548,0.678295059 L18.4965402,0.678295059 L32.0987341,45.2956906 L32.0987341,45.2956906 Z M21.3702431,26.1739497 L15.8144174,8.0720349 L10.450172,26.1739497 L21.3702431,26.1739497 L21.3702431,26.1739497 Z"></path>
                                        <path d="M42.9533487,2.65420829 C42.9533487,3.37605401 42.6979085,3.99273016 42.187028,4.50264325 C41.6761474,5.01096287 41.0694768,5.26591941 40.3670161,5.26591941 C39.6645554,5.26591941 39.0467092,5.001402 38.5150742,4.46918021 C37.9818426,3.93855189 37.7168234,3.3330301 37.7168234,2.65261481 C37.7168234,1.97219953 37.9818426,1.36667773 38.5150742,0.834455943 C39.0467092,0.303827632 39.6645554,0.0377167365 40.3670161,0.0377167365 C41.0694768,0.0377167365 41.6761474,0.292673283 42.187028,0.802586375 C42.699505,1.31568642 42.9533487,1.93236257 42.9533487,2.65420829 L42.9533487,2.65420829 Z M42.5717848,45.2956906 L37.9738601,45.2956906 L37.9738601,13.3623832 L42.5717848,13.3623832 L42.5717848,45.2956906 L42.5717848,45.2956906 Z"></path>
                                    </g>
                                </g>
                            </g>
                        </g>
                    </g>
                </g>
            </g>
        </g>
    </g>
</svg>