<?xml version="1.0" encoding="UTF-8"?>
<svg width="50px" height="50px" viewBox="0 0 335 453" version="1.1" xmlns="http://www.w3.org/2000/svg" xmlns:xlink="http://www.w3.org/1999/xlink">
    <!-- Generator: Sketch 3.6.1 (26313) - http://www.bohemiancoding.com/sketch -->
    <title>java</title>
    <desc>Created with Sketch.</desc>
    <defs></defs>
    <g id="Page-1" stroke="none" stroke-width="1" fill="none" fill-rule="evenodd">
        <g id="java">
            <g id="Layer_1">
                <g id="Group">
                    <path d="M108.151,349.592 C108.151,349.592 90.886,359.641 120.452,363.032 C156.276,367.122 174.582,366.533 214.048,359.073 C214.048,359.073 224.445,365.577 238.94,371.21 C150.439,409.127 38.644,369.013 108.151,349.592 L108.151,349.592 L108.151,349.592 Z" id="Shape" fill="#0074BD"></path>
                    <path d="M97.331,300.104 C97.331,300.104 77.964,314.443 107.552,317.501 C145.823,321.452 176.035,321.776 228.344,311.709 C228.344,311.709 235.562,319.041 246.929,323.048 C139.943,354.342 20.782,325.51 97.331,300.104 L97.331,300.104 L97.331,300.104 Z" id="Shape" fill="#0074BD"></path>
                    <path d="M188.494,216.145 C210.312,241.26 182.773,263.842 182.773,263.842 C182.773,263.842 238.14,235.265 212.718,199.462 C188.966,166.089 170.756,149.511 269.341,92.338 C269.342,92.338 114.587,130.979 188.494,216.145 L188.494,216.145 L188.494,216.145 Z" id="Shape" fill="#EA2D2E"></path>
                    <path d="M305.542,386.202 C305.542,386.202 318.323,396.738 291.465,404.886 C240.394,420.355 78.861,425.021 33.995,405.505 C17.878,398.485 48.116,388.755 57.63,386.7 C67.55,384.554 73.214,384.946 73.214,384.946 C55.277,372.315 -42.721,409.753 23.442,420.49 C203.871,449.736 352.337,407.317 305.542,386.202 L305.542,386.202 L305.542,386.202 Z" id="Shape" fill="#0074BD"></path>
                    <path d="M116.46,248.822 C116.46,248.822 34.305,268.341 87.368,275.435 C109.78,278.434 154.431,277.744 196.053,274.252 C230.059,271.398 264.186,265.294 264.186,265.294 C264.186,265.294 252.204,270.434 243.529,276.354 C160.085,298.301 -1.083,288.08 45.322,265.642 C84.549,246.665 116.46,248.822 116.46,248.822 L116.46,248.822 L116.46,248.822 Z" id="Shape" fill="#0074BD"></path>
                    <path d="M263.846,331.198 C348.664,287.135 309.443,244.786 282.069,250.49 C275.375,251.887 272.372,253.097 272.372,253.097 C272.372,253.097 274.866,249.19 279.615,247.509 C333.77,228.479 375.409,303.655 262.151,333.428 C262.15,333.428 263.453,332.248 263.846,331.198 L263.846,331.198 L263.846,331.198 Z" id="Shape" fill="#0074BD"></path>
                    <path d="M212.719,0 C212.719,0 259.682,46.99 168.162,119.227 C94.769,177.196 151.428,210.236 168.136,248.005 C125.291,209.352 93.865,175.321 114.944,143.653 C145.898,97.174 231.663,74.632 212.719,0 L212.719,0 L212.719,0 Z" id="Shape" fill="#EA2D2E"></path>
                    <path d="M124.799,450.637 C206.196,455.841 331.225,447.741 334.184,409.222 C334.184,409.222 328.496,423.824 266.908,435.41 C197.427,448.491 111.711,446.968 60.892,438.577 C60.892,438.577 71.303,447.194 124.799,450.637 L124.799,450.637 L124.799,450.637 Z" id="Shape" fill="#0074BD"></path>
                </g>
            </g>
        </g>
    </g>
</svg>