<?xml version="1.0" encoding="UTF-8"?>
<svg width="40px" height="64px" viewBox="0 0 46 74" version="1.1" xmlns="http://www.w3.org/2000/svg" xmlns:xlink="http://www.w3.org/1999/xlink">
    <!-- Generator: Sketch 3.6.1 (26313) - http://www.bohemiancoding.com/sketch -->
    <title>Combined Shape</title>
    <desc>Created with Sketch.</desc>
    <defs></defs>
    <g id="Welcome" stroke="none" stroke-width="1" fill="none" fill-rule="evenodd">
        <g id="MyVersion-Desktop-HD" transform="translate(-963.000000, -348.000000)" fill="#F8196C">
            <g id="Group-6" transform="translate(382.000000, 314.000000)">
                <g id="Group-10">
                    <g id="Group-5" transform="translate(0.797092, 0.000000)">
                        <g id="Group-15">
                            <g id="Group-4" transform="translate(532.202908, 0.000000)">
                                <g id="Group-13">
                                    <path d="M90.1647498,69.1433925 C92.378806,65.6089508 93.6595745,61.4247672 93.6595745,56.94 C93.6595745,44.2705878 83.4383306,34 70.8297872,34 C58.2212439,34 48,44.2705878 48,56.94 C48,61.4247672 49.2807685,65.6089508 51.4948247,69.1433925 L70.8297872,108 L90.1647498,69.1433925 Z M70.8297872,66.56 C76.5239681,66.56 81.1400137,61.92167 81.1400137,56.2 C81.1400137,50.47833 76.5239681,45.84 70.8297872,45.84 C65.1356064,45.84 60.5195607,50.47833 60.5195607,56.2 C60.5195607,61.92167 65.1356064,66.56 70.8297872,66.56 Z" id="Combined-Shape"></path>
                                </g>
                            </g>
                        </g>
                    </g>
                </g>
            </g>
        </g>
    </g>
</svg>