<?xml version="1.0" encoding="UTF-8"?>
<svg width="70px" height="70px" viewBox="0 0 92 103" version="1.1" xmlns="http://www.w3.org/2000/svg" xmlns:xlink="http://www.w3.org/1999/xlink">
    <!-- Generator: Sketch 3.6.1 (26313) - http://www.bohemiancoding.com/sketch -->
    <title>path28</title>
    <desc>Created with Sketch.</desc>
    <defs></defs>
    <g id="Welcome" stroke="none" stroke-width="1" fill="none" fill-rule="evenodd">
        <g id="MyVersion-Desktop-HD" transform="translate(-897.000000, -1628.000000)" fill="#83CD29">
            <path d="M943.03894,1628.44151 C941.66753,1628.44151 940.3342,1628.72511 939.15464,1629.39277 L901.81778,1650.9546 C899.40159,1652.34572 897.93348,1654.97525 897.93348,1657.77195 L897.93348,1700.81647 C897.93348,1703.61165 899.40159,1706.23813 901.81778,1707.63357 L911.56817,1713.26197 C916.30543,1715.59673 918.05258,1715.56071 920.20876,1715.56071 C927.2227,1715.56071 931.22749,1711.30491 931.22749,1703.90793 L931.22749,1661.41844 C931.22749,1660.81775 930.70747,1660.38778 930.11769,1660.38778 L925.44068,1660.38778 C924.84138,1660.38778 924.33087,1660.81775 924.33087,1661.41844 L924.33087,1703.90793 C924.33087,1707.1866 920.91586,1710.48379 915.3732,1707.71296 L905.22646,1701.76773 C904.86815,1701.57241 904.59228,1701.22767 904.59228,1700.81647 L904.59228,1657.77195 C904.59228,1657.36329 904.86498,1656.94829 905.22646,1656.74155 L942.48404,1635.25886 C942.83283,1635.05846 943.24821,1635.05846 943.59384,1635.25886 L980.85142,1656.74155 C981.20656,1656.95463 981.48559,1657.35086 981.48559,1657.77195 L981.48559,1700.81647 C981.48559,1701.22767 981.27936,1701.64876 980.93069,1701.84688 L943.59384,1723.32957 C943.27358,1723.51982 942.83283,1723.51982 942.48404,1723.32957 L932.89219,1717.62202 C932.60681,1717.4546 932.2168,1717.46728 931.94093,1717.62202 C929.29327,1719.12298 928.79544,1719.2975 926.31266,1720.15871 C925.70069,1720.37179 924.77162,1720.70334 926.62975,1721.74414 L939.15464,1729.11626 C940.34688,1729.80623 941.67547,1730.14666 943.03894,1730.14666 C944.42143,1730.14666 945.731,1729.80623 946.92324,1729.11626 L984.26009,1707.63357 C986.67629,1706.22824 988.14439,1703.61165 988.14439,1700.81647 L988.14439,1657.77195 C988.14439,1654.97525 986.67629,1652.35156 984.26009,1650.9546 L946.92324,1629.39277 C945.75319,1628.72511 944.41035,1628.44151 943.03894,1628.44151 L943.03894,1628.44151 Z M953.02714,1659.19934 C942.39525,1659.19934 936.06305,1663.72403 936.06305,1671.2486 C936.06305,1679.41141 942.34769,1681.65409 952.55151,1682.66369 C964.75932,1683.85873 965.71057,1685.65115 965.71057,1688.05415 C965.71057,1692.22218 962.38751,1693.99938 954.5333,1693.99938 C944.66559,1693.99938 942.49672,1691.53601 941.77059,1686.62727 C941.68509,1686.1009 941.27911,1685.67601 940.74007,1685.67601 L935.90451,1685.67601 C935.30839,1685.67601 934.79471,1686.18867 934.79471,1686.78581 C934.79471,1693.06918 938.21289,1700.4999 954.5333,1700.4999 C966.34792,1700.4999 973.16209,1695.86233 973.16209,1687.73707 C973.16209,1679.68207 967.65748,1677.52005 956.198,1676.00489 C944.61802,1674.47273 943.51457,1673.72289 943.51457,1671.01092 C943.51457,1668.77229 944.44997,1665.77875 953.02714,1665.77875 C960.68793,1665.77875 963.51951,1667.43089 964.68004,1672.59635 C964.78151,1673.08187 965.20958,1673.4682 965.71057,1673.4682 L970.54613,1673.4682 C970.84419,1673.4682 971.13274,1673.28556 971.33885,1673.07172 C971.54178,1672.84342 971.68447,1672.5862 971.65593,1672.27926 C970.90761,1663.38335 964.97493,1659.19934 953.02714,1659.19934 L953.02714,1659.19934 Z" id="path28"></path>
        </g>
    </g>
</svg>