<?xml version="1.0" encoding="UTF-8"?>
<svg width="70px" height="82px" viewBox="0 0 70 82" version="1.1" xmlns="http://www.w3.org/2000/svg" xmlns:xlink="http://www.w3.org/1999/xlink">
    <!-- Generator: Sketch 3.6.1 (26313) - http://www.bohemiancoding.com/sketch -->
    <title>person</title>
    <desc>Created with Sketch.</desc>
    <defs></defs>
    <g id="Welcome" stroke="none" stroke-width="1" fill="none" fill-rule="evenodd">
        <g id="MyVersion-Desktop-HD" transform="translate(-685.000000, -344.000000)" fill="#F8196C">
            <g id="Group-6" transform="translate(382.000000, 314.000000)">
                <g id="Group-10">
                    <g id="Group-5" transform="translate(0.797092, 0.000000)">
                        <g id="Group-15">
                            <g id="Group-17" transform="translate(266.000000, 0.000000)">
                                <g id="person" transform="translate(36.202908, 30.000000)">
                                    <g id="Capa_1">
                                        <g id="Group">
                                            <path d="M34.9659367,44.1747412 L35.2384428,44.1747412 C40.2287105,44.0898551 44.2652068,42.3412008 47.2457421,38.9966874 C53.8029197,31.6285714 52.7128954,18.9975155 52.593674,17.7921325 C52.1678832,8.74327122 47.8759124,4.41407867 44.3333333,2.39378882 C41.6934307,0.882815735 38.6107056,0.0679089027 35.1703163,0 L35.0510949,0 L34.8807786,0 C32.9902676,0 29.2773723,0.305590062 25.7177616,2.32587992 C22.1411192,4.34616977 17.7810219,8.67536232 17.3552311,17.7921325 C17.2360097,18.9975155 16.1459854,31.6285714 22.703163,38.9966874 C25.6666667,42.3412008 29.703163,44.0898551 34.6934307,44.1747412 L34.9659367,44.1747412 Z M21.9026764,18.2165631 C21.9026764,18.1656315 21.919708,18.1146998 21.919708,18.0807453 C22.4817518,5.90807453 31.1508516,4.60082816 34.863747,4.60082816 L34.9318735,4.60082816 L35.0681265,4.60082816 C39.6666667,4.70269151 47.4841849,6.57018634 48.0121655,18.0807453 C48.0121655,18.131677 48.0121655,18.1826087 48.0291971,18.2165631 C48.0462287,18.3354037 49.2384428,29.8799172 43.8223844,35.957764 C41.676399,38.36853 38.8150852,39.5569358 35.0510949,39.5908903 L34.9659367,39.5908903 L34.9659367,39.5908903 L34.8807786,39.5908903 C31.13382,39.5569358 28.2554745,38.36853 26.1265207,35.957764 C20.7274939,29.9138716 21.8856448,18.3184265 21.9026764,18.2165631 L21.9026764,18.2165631 Z" id="Shape"></path>
                                            <path d="M69.9489051,64.6492754 C69.8467153,61.2877847 69.6253041,53.4273292 62.2335766,50.9146998 C54.3819951,48.9113872 47.9951338,44.4973085 47.9270073,44.4463768 C46.8880779,43.7163561 45.4574209,43.9710145 44.7250608,45.0066253 C43.9927007,46.042236 44.2481752,47.468323 45.2871046,48.1983437 C45.5766423,48.4020704 52.3552311,53.1047619 60.836983,55.2778468 C64.8053528,56.6869565 65.2481752,60.9142857 65.3673966,64.7850932 C65.3673966,64.9378882 65.3673966,65.073706 65.3844282,65.2095238 C65.4014599,66.7374741 65.2992701,69.0973085 65.026764,70.4554865 C62.2676399,72.0173913 51.4525547,77.4161491 35,77.4161491 C18.6155718,77.4161491 7.7323601,72.0004141 4.95620438,70.4385093 C4.6836983,69.0803313 4.56447689,66.7204969 4.59854015,65.1925466 C4.59854015,65.0567288 4.61557178,64.920911 4.61557178,64.7681159 C4.73479319,60.8973085 5.17761557,56.6699793 9.1459854,55.2608696 C17.6277372,53.0877847 24.406326,48.3681159 24.6958637,48.1813665 C25.7347932,47.4513458 25.9902676,46.0252588 25.2579075,44.989648 C24.5255474,43.9540373 23.0948905,43.6993789 22.0559611,44.4293996 C21.9878345,44.4803313 15.6350365,48.8944099 7.91970803,50.8467909 C0.357664234,53.4273292 0.136253041,61.2877847 0.0340632603,64.6322981 C0.0340632603,64.7850932 0.0340632603,64.920911 0.0170316302,65.0567288 C-1.71234554e-14,65.9904762 -0.0170316302,70.5233954 0.885644769,72.7983437 C1.05596107,73.2397516 1.36253041,73.6132505 1.77128954,73.8679089 C2.28223844,74.2074534 14.5279805,81.9830228 35.0170316,81.9830228 C55.5060827,81.9830228 67.7518248,74.1904762 68.2627737,73.8679089 C68.6545012,73.6132505 68.9781022,73.2397516 69.1484185,72.7983437 C70,70.5403727 69.9829684,66.0074534 69.9659367,65.1246377 C69.9659367,64.9378882 69.9489051,64.8020704 69.9489051,64.6492754 Z" id="Shape"></path>
                                        </g>
                                    </g>
                                </g>
                            </g>
                        </g>
                    </g>
                </g>
            </g>
        </g>
    </g>
</svg>