<?xml version="1.0" encoding="UTF-8"?>
<svg width="50px" height="50px" viewBox="0 0 104 92" version="1.1" xmlns="http://www.w3.org/2000/svg" xmlns:xlink="http://www.w3.org/1999/xlink">
    <!-- Generator: Sketch 3.6.1 (26313) - http://www.bohemiancoding.com/sketch -->
    <title>logo</title>
    <desc>Created with Sketch.</desc>
    <defs></defs>
    <g id="Welcome" stroke="none" stroke-width="1" fill="none" fill-rule="evenodd">
        <g id="MyVersion-Desktop-HD" transform="translate(-1193.000000, -1209.000000)" fill="#61DAFB">
            <g id="Group-15">
                <g id="Group-18" transform="translate(124.000000, 1194.000000)">
                    <g id="logo" transform="translate(1069.000000, 15.000000)">
                        <g id="Group">
                            <path d="M103.775218,45.9187367 C103.775218,39.0887186 95.1783298,32.6159631 81.997842,28.602014 C85.039493,15.2361941 83.6876481,4.60238139 77.7310816,1.19788009 C76.3581141,0.399293362 74.7527983,0.0210154401 72.9996244,0.0210154401 L72.9996244,4.70745859 C73.9712629,4.70745859 74.7527983,4.89659755 75.4075981,5.25386003 C78.2802685,6.89306436 79.5265006,13.1346501 78.554862,21.1625482 C78.3225137,23.1379996 77.9423073,25.2185281 77.4776106,27.3410876 C73.3375856,26.3323465 68.8173543,25.5547752 64.0647746,25.0504046 C61.2132267,21.1625482 58.256066,17.6319543 55.2777827,14.5426846 C62.1637427,8.17500621 68.6272511,4.68644315 73.020747,4.68644315 L73.020747,0 C67.2120385,0 59.6079109,4.11902626 51.9192931,11.2642759 C44.2306752,4.16105714 36.6265477,0.0840617605 30.8178391,0.0840617605 L30.8178391,4.77050491 C35.1902125,4.77050491 41.6748435,8.23805253 48.5608034,14.5637 C45.6036427,17.6529697 42.646482,21.1625482 39.8371793,25.0504046 C35.063477,25.5547752 30.5432456,26.3323465 26.4032206,27.362103 C25.9174014,25.260559 25.5583176,23.2220613 25.3048467,21.2676254 C24.3120856,13.2397273 25.537195,6.99814156 28.3887428,5.33792179 C29.0224201,4.95964387 29.8462006,4.79152035 30.8178391,4.79152035 L30.8178391,0.105077201 C29.0435427,0.105077201 27.4382269,0.483355123 26.0441368,1.28194185 C20.1086928,4.68644315 18.7779705,15.2992404 21.8407441,28.6230294 C8.70250152,32.657994 0.147858036,39.1097341 0.147858036,45.9187367 C0.147858036,52.7487547 8.74474668,59.2215103 21.9252344,63.2354593 C18.8835834,76.6012793 20.2354283,87.235092 26.1919949,90.6395933 C27.5649623,91.43818 29.1702782,91.8164579 30.9445746,91.8164579 C36.7532831,91.8164579 44.3574107,87.6974316 52.0460285,80.552182 C59.7346464,87.6554008 67.3387739,91.7323961 73.1474825,91.7323961 C74.9217789,91.7323961 76.5270947,91.3541182 77.9211847,90.5555315 C83.8566287,87.1510302 85.1873511,76.5382329 82.1245775,63.2144439 C95.2205749,59.2004948 103.775218,52.7277393 103.775218,45.9187367 L103.775218,45.9187367 Z M76.2736238,31.9014381 C75.4920884,34.6124299 74.5204499,37.4074834 73.4220759,40.202537 C72.5560503,38.5213017 71.6477795,36.8400665 70.6550184,35.1588313 C69.6833799,33.4775961 68.6483737,31.8383918 67.6133674,30.2412183 C70.6127733,30.6825426 73.5065663,31.228944 76.2736238,31.9014381 L76.2736238,31.9014381 Z M66.5994837,54.2828818 C64.9519228,57.1199663 63.2621166,59.8099426 61.5089428,62.31078 C58.3616789,62.5839807 55.1721698,62.7310888 51.9615382,62.7310888 C48.7720292,62.7310888 45.5825201,62.5839807 42.4563788,62.3317954 C40.7032049,59.830958 38.9922762,57.1619971 37.3447153,54.3459282 C35.7393995,51.5929055 34.2819417,48.797852 32.9512194,45.981783 C34.2608191,43.165714 35.7393995,40.349645 37.3235927,37.5966224 C38.9711537,34.759538 40.6609598,32.0695616 42.4141336,29.5687243 C45.5613975,29.2955235 48.7509066,29.1484155 51.9615382,29.1484155 C55.1510473,29.1484155 58.3405563,29.2955235 61.4666976,29.5477088 C63.2198715,32.0485462 64.9308002,34.7175071 66.5783612,37.5335761 C68.183677,40.2865987 69.6411348,43.0816523 70.9718571,45.8977212 C69.6411348,48.7137902 68.183677,51.5298592 66.5994837,54.2828818 L66.5994837,54.2828818 Z M73.4220759,51.5508746 C74.5626951,54.3669436 75.5343336,57.1830126 76.3369915,59.9150198 C73.569934,60.5875139 70.6550184,61.1549308 67.63449,61.596255 C68.6694962,59.9780661 69.7045025,58.3178463 70.676141,56.6155957 C71.6477795,54.9343605 72.5560503,53.2321098 73.4220759,51.5508746 L73.4220759,51.5508746 Z M52.0037834,73.9743492 C50.0393838,71.956867 48.0749841,69.7082149 46.1317071,67.2494084 C48.032739,67.3334702 49.976016,67.3965165 51.9404156,67.3965165 C53.9259378,67.3965165 55.8903374,67.3544856 57.8124919,67.2494084 C55.91146,69.7082149 53.9470604,71.956867 52.0037834,73.9743492 L52.0037834,73.9743492 Z M36.2885864,61.596255 C33.2891806,61.1549308 30.3953876,60.6085293 27.6283301,59.9360352 C28.4098654,57.2250435 29.3815039,54.4299899 30.4798779,51.6349364 C31.3459035,53.3161716 32.2541743,54.9974068 33.2469354,56.678642 C34.2396965,58.3598772 35.2535802,59.9990816 36.2885864,61.596255 L36.2885864,61.596255 Z M51.8981705,17.8631241 C53.8625701,19.8806064 55.8269697,22.1292585 57.7702468,24.5880649 C55.8692149,24.5040032 53.9259378,24.4409569 51.9615382,24.4409569 C49.976016,24.4409569 48.0116164,24.4829877 46.0894619,24.5880649 C47.9904938,22.1292585 49.9548934,19.8806064 51.8981705,17.8631241 L51.8981705,17.8631241 Z M36.2674639,30.2412183 C35.2324576,31.8594072 34.1974514,33.519627 33.2258129,35.2218776 C32.2541743,36.9031129 31.3459035,38.5843481 30.4798779,40.2655833 C29.3392588,37.4495143 28.3676203,34.6334453 27.5649623,31.9014381 C30.3320199,31.2499595 33.2469354,30.6825426 36.2674639,30.2412183 L36.2674639,30.2412183 Z M17.1515321,56.5525494 C9.67414004,53.3792179 4.83707002,49.2181608 4.83707002,45.9187367 C4.83707002,42.6193126 9.67414004,38.43724 17.1515321,35.284924 C18.9680737,34.5073527 20.9535959,33.8138432 23.0024858,33.1623645 C24.2064727,37.2813908 25.7906659,41.5685406 27.7550655,45.9607676 C25.8117885,50.3319791 24.2487178,54.5981134 23.0658535,58.6961243 C20.9747185,58.0446456 18.9891963,57.3301207 17.1515321,56.5525494 L17.1515321,56.5525494 Z M28.5154783,86.5836133 C25.6428079,84.944409 24.3965759,78.7028233 25.3682144,70.6749251 C25.6005627,68.6994738 25.9807691,66.6189452 26.4454658,64.4963857 C30.5854908,65.5051269 35.1057222,66.2826982 39.8583019,66.7870687 C42.7098497,70.6749251 45.6670104,74.2055191 48.6452937,77.2947888 C41.7593338,83.6624671 35.2958253,87.1510302 30.9023294,87.1510302 C29.9518135,87.1300148 29.1491556,86.9408758 28.5154783,86.5836133 L28.5154783,86.5836133 Z M78.6182298,70.5698479 C79.6109909,78.5977461 78.3858814,84.8393318 75.5343336,86.4995516 C74.9006563,86.8778295 74.0768758,87.045953 73.1052373,87.045953 C68.732864,87.045953 62.248233,83.5784054 55.362273,77.2527579 C58.3194337,74.1634882 61.2765945,70.6539097 64.0858971,66.7660533 C68.8595994,66.2616827 73.3798308,65.4841114 77.5198558,64.4543549 C78.0056751,66.5769143 78.3858814,68.615412 78.6182298,70.5698479 L78.6182298,70.5698479 Z M86.7504217,56.5525494 C84.9338801,57.3301207 82.948358,58.0236302 80.899468,58.6751088 C79.6954812,54.5560826 78.1112879,50.2689328 76.1468883,45.8767058 C78.0901654,41.5054942 79.653236,37.2393599 80.8361003,33.1413491 C82.9272354,33.7928277 84.9127576,34.5073527 86.7715443,35.284924 C94.2489364,38.4582554 99.0860064,42.6193126 99.0860064,45.9187367 C99.0648838,49.2181608 94.2278138,53.4002334 86.7504217,56.5525494 L86.7504217,56.5525494 Z" id="Shape"></path>
                            <ellipse id="Oval" cx="51.9404156" cy="45.9187367" rx="9.65301747" ry="9.60405614"></ellipse>
                        </g>
                    </g>
                </g>
            </g>
        </g>
    </g>
</svg>