<?xml version="1.0" encoding="UTF-8"?>
<svg width="50px" height="50px" viewBox="0 0 71 71" version="1.1" xmlns="http://www.w3.org/2000/svg" xmlns:xlink="http://www.w3.org/1999/xlink">
    <!-- Generator: Sketch 3.6.1 (26313) - http://www.bohemiancoding.com/sketch -->
    <title>server</title>
    <desc>Created with Sketch.</desc>
    <defs></defs>
    <g id="Welcome" stroke="none" stroke-width="1" fill="none" fill-rule="evenodd">
        <g id="MyVersion-Desktop-HD" transform="translate(-685.000000, -357.000000)" fill="#F8196C">
            <g id="Group-6" transform="translate(250.000000, 322.000000)">
                <g id="Group-10">
                    <g id="Group-5" transform="translate(399.797092, 0.000000)">
                        <g id="Group-4">
                            <g id="server" transform="translate(35.542023, 35.695908)">
                                <g id="Capa_1">
                                    <g id="Group">
                                        <path d="M12.2539838,7.27920963 C9.35854247,7.27920963 7.00227645,9.66691273 7.00227645,12.6009847 C7.00227645,15.5350568 9.35854247,17.9227599 12.2539838,17.9227599 C15.1494251,17.9227599 17.5056911,15.5350568 17.5056911,12.6009847 C17.5056911,9.66691273 15.1494251,7.27920963 12.2539838,7.27920963 L12.2539838,7.27920963 Z M12.2539838,15.5575265 C10.6457943,15.5575265 9.3363686,14.2318132 9.3363686,12.6009847 C9.3363686,10.9701563 10.6457943,9.64444302 12.2539838,9.64444302 C13.8621733,9.64444302 15.171599,10.9701563 15.171599,12.6009847 C15.171599,14.2318132 13.8621733,15.5575265 12.2539838,15.5575265 L12.2539838,15.5575265 Z" id="Shape"></path>
                                        <ellipse id="Oval" cx="58.3523037" cy="10.8270597" rx="1.16704607" ry="1.18261669"></ellipse>
                                        <ellipse id="Oval" cx="53.6841194" cy="10.8270597" rx="1.16704607" ry="1.18261669"></ellipse>
                                        <ellipse id="Oval" cx="60.6863959" cy="14.3749098" rx="1.16704607" ry="1.18261669"></ellipse>
                                        <ellipse id="Oval" cx="56.0182116" cy="14.3749098" rx="1.16704607" ry="1.18261669"></ellipse>
                                        <ellipse id="Oval" cx="49.0159351" cy="10.8270597" rx="1.16704607" ry="1.18261669"></ellipse>
                                        <ellipse id="Oval" cx="51.3500273" cy="14.3749098" rx="1.16704607" ry="1.18261669"></ellipse>
                                        <ellipse id="Oval" cx="44.3477508" cy="10.8270597" rx="1.16704607" ry="1.18261669"></ellipse>
                                        <ellipse id="Oval" cx="46.681843" cy="14.3749098" rx="1.16704607" ry="1.18261669"></ellipse>
                                        <ellipse id="Oval" cx="39.6795665" cy="10.8270597" rx="1.16704607" ry="1.18261669"></ellipse>
                                        <ellipse id="Oval" cx="42.0136587" cy="14.3749098" rx="1.16704607" ry="1.18261669"></ellipse>
                                        <path d="M70.0227645,19.5689623 L70.0227645,5.6330072 C70.0227645,2.62797819 67.6104802,0.183509487 64.6450162,0.183509487 L5.37774831,0.183509487 C2.41228424,0.183509487 0,2.62797819 0,5.6330072 L0,19.5677797 C0,21.3050436 0.82043339,22.8365322 2.07384087,23.8346607 C0.82043339,24.8339718 0,26.366643 0,28.1027243 L0,42.0374968 C0,43.7747607 0.82043339,45.3062493 2.07384087,46.3043778 C0.82043339,47.3036889 0,48.8363602 0,50.5724415 L0,64.5072139 C0,67.5134256 2.41228424,69.9578943 5.37774831,69.9578943 L64.6438491,69.9578943 C67.6093132,69.9578943 70.0215974,67.5134256 70.0215974,64.5083966 L70.0215974,50.5724415 C70.0215974,48.8351775 69.201164,47.3036889 67.9477565,46.3055604 C69.2023311,45.307432 70.0227645,43.7747607 70.0227645,42.0386794 L70.0227645,28.1027243 C70.0227645,26.3654604 69.2023311,24.8339718 67.9489236,23.8358433 C69.2023311,22.8377148 70.0227645,21.3050436 70.0227645,19.5689623 L70.0227645,19.5689623 Z M67.6886723,50.5724415 L67.6886723,64.5072139 C67.6886723,66.2078167 66.3232284,67.5914783 64.6450162,67.5914783 L5.37774831,67.5914783 C3.69953606,67.5926609 2.33409215,66.2089994 2.33409215,64.5083966 L2.33409215,50.5724415 C2.33409215,48.8718387 3.69953606,47.4881771 5.37774831,47.4881771 L64.6438491,47.4881771 C66.3232284,47.4881771 67.6886723,48.8718387 67.6886723,50.5724415 L67.6886723,50.5724415 Z M67.6886723,28.1027243 L67.6886723,42.0374968 C67.6886723,43.7380996 66.3232284,45.1217611 64.6450162,45.1217611 L5.37774831,45.1217611 C3.69953606,45.1229438 2.33409215,43.7392822 2.33409215,42.0386794 L2.33409215,28.1027243 C2.33409215,26.4021215 3.69953606,25.01846 5.37774831,25.01846 L64.6438491,25.01846 C66.3232284,25.01846 67.6886723,26.4021215 67.6886723,28.1027243 L67.6886723,28.1027243 Z M5.37774831,22.6532266 C3.69953606,22.6532266 2.33409215,21.2695651 2.33409215,19.5689623 L2.33409215,5.6330072 C2.33409215,3.9324044 3.69953606,2.54874287 5.37774831,2.54874287 L64.6438491,2.54874287 C66.3232284,2.54874287 67.6886723,3.9324044 67.6886723,5.6330072 L67.6886723,19.5677797 C67.6886723,21.2683825 66.3232284,22.652044 64.6450162,22.652044 L5.37774831,22.652044 L5.37774831,22.6532266 Z" id="Shape"></path>
                                        <path d="M12.2539838,40.392477 C15.1494251,40.392477 17.5056911,38.0047739 17.5056911,35.0707019 C17.5056911,32.1366299 15.1494251,29.7489268 12.2539838,29.7489268 C9.35854247,29.7489268 7.00227645,32.1366299 7.00227645,35.0707019 C7.00227645,38.0047739 9.35854247,40.392477 12.2539838,40.392477 L12.2539838,40.392477 Z M12.2539838,32.1141601 C13.8621733,32.1141601 15.171599,33.4398735 15.171599,35.0707019 C15.171599,36.7015303 13.8621733,38.0272436 12.2539838,38.0272436 C10.6457943,38.0272436 9.3363686,36.7015303 9.3363686,35.0707019 C9.3363686,33.4398735 10.6457943,32.1141601 12.2539838,32.1141601 L12.2539838,32.1141601 Z" id="Shape"></path>
                                        <ellipse id="Oval" cx="58.3523037" cy="33.2967768" rx="1.16704607" ry="1.18261669"></ellipse>
                                        <ellipse id="Oval" cx="53.6841194" cy="33.2967768" rx="1.16704607" ry="1.18261669"></ellipse>
                                        <ellipse id="Oval" cx="60.6863959" cy="36.8446269" rx="1.16704607" ry="1.18261669"></ellipse>
                                        <ellipse id="Oval" cx="56.0182116" cy="36.8446269" rx="1.16704607" ry="1.18261669"></ellipse>
                                        <ellipse id="Oval" cx="49.0159351" cy="33.2967768" rx="1.16704607" ry="1.18261669"></ellipse>
                                        <ellipse id="Oval" cx="51.3500273" cy="36.8446269" rx="1.16704607" ry="1.18261669"></ellipse>
                                        <ellipse id="Oval" cx="44.3477508" cy="33.2967768" rx="1.16704607" ry="1.18261669"></ellipse>
                                        <ellipse id="Oval" cx="46.681843" cy="36.8446269" rx="1.16704607" ry="1.18261669"></ellipse>
                                        <ellipse id="Oval" cx="39.6795665" cy="33.2967768" rx="1.16704607" ry="1.18261669"></ellipse>
                                        <ellipse id="Oval" cx="42.0136587" cy="36.8446269" rx="1.16704607" ry="1.18261669"></ellipse>
                                        <path d="M12.2539838,62.8621941 C15.1494251,62.8621941 17.5056911,60.474491 17.5056911,57.540419 C17.5056911,54.606347 15.1494251,52.2186439 12.2539838,52.2186439 C9.35854247,52.2186439 7.00227645,54.606347 7.00227645,57.540419 C7.00227645,60.474491 9.35854247,62.8621941 12.2539838,62.8621941 L12.2539838,62.8621941 Z M12.2539838,54.5838773 C13.8621733,54.5838773 15.171599,55.9095906 15.171599,57.540419 C15.171599,59.1712474 13.8621733,60.4969607 12.2539838,60.4969607 C10.6457943,60.4969607 9.3363686,59.1712474 9.3363686,57.540419 C9.3363686,55.9095906 10.6457943,54.5838773 12.2539838,54.5838773 L12.2539838,54.5838773 Z" id="Shape"></path>
                                        <ellipse id="Oval" cx="58.3523037" cy="55.766494" rx="1.16704607" ry="1.18261669"></ellipse>
                                        <ellipse id="Oval" cx="53.6841194" cy="55.766494" rx="1.16704607" ry="1.18261669"></ellipse>
                                        <ellipse id="Oval" cx="60.6863959" cy="59.314344" rx="1.16704607" ry="1.18261669"></ellipse>
                                        <ellipse id="Oval" cx="56.0182116" cy="59.314344" rx="1.16704607" ry="1.18261669"></ellipse>
                                        <ellipse id="Oval" cx="49.0159351" cy="55.766494" rx="1.16704607" ry="1.18261669"></ellipse>
                                        <ellipse id="Oval" cx="51.3500273" cy="59.314344" rx="1.16704607" ry="1.18261669"></ellipse>
                                        <ellipse id="Oval" cx="44.3477508" cy="55.766494" rx="1.16704607" ry="1.18261669"></ellipse>
                                        <ellipse id="Oval" cx="46.681843" cy="59.314344" rx="1.16704607" ry="1.18261669"></ellipse>
                                        <ellipse id="Oval" cx="39.6795665" cy="55.766494" rx="1.16704607" ry="1.18261669"></ellipse>
                                        <ellipse id="Oval" cx="42.0136587" cy="59.314344" rx="1.16704607" ry="1.18261669"></ellipse>
                                    </g>
                                </g>
                            </g>
                        </g>
                    </g>
                </g>
            </g>
        </g>
    </g>
</svg>